# xmcd CD database file
#
# Track frame offsets:
#	150
#	17489
#	41338
#	53756
#	72169
#	96485
#	110000
#	125793
#	137669
#	161306
#	178568
#
# Disc length: 2832 seconds
#
# Revision: 6
# Processed by: cddbd v1.5.1PL2 Copyright (c) Steve Scherf et al.
# Submitted via: CDex 1.51
#
DISCID=910b0e0b
DTITLE=Synapse Tapestry - Pass the Shadow
DYEAR=2005
DGENRE=New Age
TTITLE0=Upturned
TTITLE1=Veronica
TTITLE2=Prism
TTITLE3=Ashen Greene
TTITLE4=Beyond Love
TTITLE5=Waldo's Wood
TTITLE6=Dream Sequence
TTITLE7=Loracon
TTITLE8=Aegis
TTITLE9=Seen
TTITLE10=Tapestry
EXTD=YEAR: 2005
EXTT0=
EXTT1=
EXTT2=
EXTT3=
EXTT4=
EXTT5=
EXTT6=
EXTT7=
EXTT8=
EXTT9=
EXTT10=
PLAYORDER=
